<svg xmlns="http://www.w3.org/2000/svg" viewBox="0 0 512 512" role="img" aria-label="Chicago Trip icon">
  <defs>
    <linearGradient id="sky" x1="0" y1="0" x2="1" y2="1">
      <stop offset="0" stop-color="#2364aa"/>
      <stop offset="1" stop-color="#087d80"/>
    </linearGradient>
  </defs>
  <rect width="512" height="512" rx="96" fill="url(#sky)"/>
  <path d="M80 348c52-26 98-39 140-39 56 0 83 25 132 25 32 0 58-10 80-24v72H80z" fill="#e6f4eb" opacity=".92"/>
  <path d="M86 250c62-48 118-72 169-72 58 0 96 32 171 28" fill="none" stroke="#ffffff" stroke-width="20" stroke-linecap="round" opacity=".95"/>
  <path d="M120 318h272" stroke="#ffffff" stroke-width="18" stroke-linecap="round" opacity=".95"/>
  <path d="M146 318V197h38v121m52 0V153h42v165m54 0V212h36v106" stroke="#17212b" stroke-width="24" stroke-linecap="round" stroke-linejoin="round" opacity=".9"/>
  <circle cx="382" cy="142" r="36" fill="#fff4df"/>
  <path d="M374 129l52 18-52 18 9-18z" fill="#c53f35"/>
  <text x="256" y="435" fill="#ffffff" font-family="Arial, Helvetica, sans-serif" font-size="76" font-weight="800" text-anchor="middle">CHI</text>
</svg>
